<?xml version="1.0" encoding="utf-8"?>
<!-- Generator: Adobe Illustrator 17.0.0, SVG Export Plug-In . SVG Version: 6.00 Build 0)  -->
<!DOCTYPE svg PUBLIC "-//W3C//DTD SVG 1.1//EN" "http://www.w3.org/Graphics/SVG/1.1/DTD/svg11.dtd">
<svg version="1.1" id="Calque_1" xmlns="http://www.w3.org/2000/svg" xmlns:xlink="http://www.w3.org/1999/xlink" x="0px" y="0px"
	 width="300px" height="300px" viewBox="0 0 300 300" enable-background="new 0 0 300 300" xml:space="preserve">
<path fill="#FFFFFF" d="M218.792,0H81.207C36.429,0,0,36.429,0,81.207v137.587c0,44.776,36.429,81.205,81.207,81.205h137.587
	c44.776,0,81.205-36.429,81.205-81.205V81.207C299.999,36.429,263.571,0,218.792,0z M282.412,218.795
	c0,35.078-28.539,63.618-63.62,63.618H81.207c-35.081,0-63.62-28.539-63.62-63.618V81.207c0-35.081,28.539-63.62,63.62-63.62
	h137.587c35.078,0,63.618,28.539,63.618,63.62V218.795z"/>
<path fill="#FFFFFF" d="M150,67.971c-45.232,0-82.029,36.797-82.029,82.029s36.797,82.029,82.029,82.029
	s82.029-36.797,82.029-82.029S195.231,67.971,150,67.971z M150,214.441c-35.532,0-64.442-28.908-64.442-64.442
	c0-35.532,28.91-64.442,64.442-64.442c35.534,0,64.442,28.91,64.442,64.442C214.441,185.534,185.534,214.441,150,214.441z"/>
<path fill="#FFFFFF" d="M233.99,38.839c-13.367,0-24.239,10.874-24.239,24.239c0,13.367,10.872,24.241,24.239,24.241
	c13.367,0,24.241-10.874,24.241-24.241S247.357,38.839,233.99,38.839z M233.99,69.729c-3.667,0-6.651-2.985-6.651-6.651
	c0-3.669,2.985-6.651,6.651-6.651c3.669,0,6.654,2.982,6.654,6.651C240.644,66.744,237.659,69.729,233.99,69.729z"/>
</svg>
