<?xml version="1.0" encoding="utf-8"?>
<!-- Generator: Adobe Illustrator 17.0.0, SVG Export Plug-In . SVG Version: 6.00 Build 0)  -->
<!DOCTYPE svg PUBLIC "-//W3C//DTD SVG 1.1//EN" "http://www.w3.org/Graphics/SVG/1.1/DTD/svg11.dtd">
<svg version="1.1" id="Calque_1" xmlns="http://www.w3.org/2000/svg" xmlns:xlink="http://www.w3.org/1999/xlink" x="0px" y="0px"
	 width="300px" height="300px" viewBox="0 0 300 300" enable-background="new 0 0 300 300" xml:space="preserve">
<path fill="#FFFFFF" d="M196.176,131.519l-66.277-36.264c-3.811-2.085-8.315-2.007-12.051,0.206
	c-3.738,2.216-5.967,6.129-5.967,10.474v71.905c0,4.324,2.216,8.231,5.928,10.448c1.939,1.158,4.088,1.739,6.242,1.739
	c1.973,0,3.95-0.488,5.77-1.467l66.279-35.639c3.934-2.117,6.39-6.207,6.409-10.677
	C202.525,137.774,200.099,133.666,196.176,131.519z M129.462,168.794v-53.741l49.534,27.104L129.462,168.794z"/>
<path fill="#FFFFFF" d="M297.792,84.958l-0.014-0.137c-0.254-2.415-2.783-23.893-13.225-34.817
	c-12.069-12.849-25.751-14.41-32.332-15.159c-0.545-0.062-1.044-0.119-1.49-0.179l-0.524-0.055
	c-39.66-2.884-99.556-3.278-100.156-3.28l-0.053-0.002l-0.053,0.002c-0.6,0.002-60.496,0.396-100.513,3.28l-0.529,0.055
	c-0.426,0.057-0.895,0.11-1.405,0.169c-6.505,0.751-20.041,2.314-32.144,15.628C5.411,61.271,2.536,82.289,2.241,84.651
	l-0.034,0.307C2.117,85.962,0,109.883,0,133.897v22.449c0,24.014,2.117,47.935,2.206,48.942l0.016,0.151
	c0.254,2.376,2.781,23.46,13.174,34.389c11.348,12.419,25.696,14.062,33.414,14.946c1.22,0.14,2.271,0.259,2.987,0.385l0.694,0.096
	c22.9,2.179,94.697,3.252,97.741,3.296l0.092,0.002l0.092-0.002c0.6-0.002,60.493-0.396,100.154-3.28l0.524-0.055
	c0.501-0.066,1.064-0.126,1.682-0.19c6.468-0.687,19.931-2.113,31.867-15.246c9.945-10.81,12.822-31.828,13.115-34.188l0.034-0.307
	c0.089-1.007,2.209-24.925,2.209-48.939v-22.449C299.999,109.883,297.882,85.965,297.792,84.958z M282.418,156.346
	c0,22.227-1.941,45.117-2.124,47.218c-0.746,5.788-3.779,19.086-8.624,24.353c-7.471,8.219-15.145,9.034-20.748,9.627
	c-0.677,0.071-1.305,0.14-1.872,0.211c-38.36,2.774-95.995,3.2-98.65,3.216c-2.978-0.043-73.725-1.126-95.926-3.188
	c-1.138-0.185-2.367-0.327-3.662-0.474c-6.571-0.753-15.566-1.783-22.483-9.391l-0.163-0.174c-4.761-4.96-7.706-17.395-8.455-24.11
	c-0.14-1.588-2.131-24.749-2.131-47.287v-22.449c0-22.201,1.936-45.067,2.124-47.211c0.89-6.818,3.98-19.311,8.624-24.36
	c7.7-8.469,15.818-9.407,21.188-10.027c0.513-0.06,0.991-0.114,1.433-0.172c38.919-2.788,96.968-3.202,99.051-3.218
	c2.083,0.014,60.111,0.43,98.684,3.218c0.474,0.06,0.991,0.119,1.547,0.183c5.523,0.629,13.87,1.582,21.531,9.753l0.071,0.076
	c4.761,4.96,7.706,17.612,8.455,24.463c0.133,1.499,2.131,24.71,2.131,47.296V156.346z"/>
</svg>
