<?xml version="1.0" encoding="utf-8"?>
<!-- Generator: Adobe Illustrator 17.0.0, SVG Export Plug-In . SVG Version: 6.00 Build 0)  -->
<!DOCTYPE svg PUBLIC "-//W3C//DTD SVG 1.1//EN" "http://www.w3.org/Graphics/SVG/1.1/DTD/svg11.dtd">
<svg version="1.1" id="Calque_1" xmlns="http://www.w3.org/2000/svg" xmlns:xlink="http://www.w3.org/1999/xlink" x="0px" y="0px"
	 width="300px" height="300px" viewBox="0 0 300 300" enable-background="new 0 0 300 300" xml:space="preserve">
<g>
	<g>
		<linearGradient id="SVGID_1_" gradientUnits="userSpaceOnUse" x1="148.6281" y1="125.8938" x2="178.9167" y2="125.8938">
			<stop  offset="0" style="stop-color:#AA8A4F"/>
			<stop  offset="1" style="stop-color:#C9A25D"/>
		</linearGradient>
		<polygon fill="url(#SVGID_1_)" points="148.984,141.288 149.733,143.746 151.122,147.096 151.906,148.628 152.797,150.053 
			153.724,151.265 154.686,152.298 155.684,153.154 156.681,153.831 157.715,154.294 158.748,154.615 159.817,154.793 
			160.85,154.793 161.884,154.65 162.917,154.401 163.915,154.009 164.913,153.474 166.801,152.085 168.547,150.267 
			170.044,148.058 171.291,145.528 171.79,144.174 172.218,142.784 172.538,141.323 172.788,139.791 172.93,138.259 
			172.966,136.655 172.859,135.052 172.681,133.412 172.36,131.773 171.897,130.134 171.291,128.495 170.543,126.856 
			169.866,125.68 169.082,124.468 167.193,122.01 165.091,119.622 162.917,117.377 159.14,113.636 157.893,112.317 157.287,111.462 
			158.534,112.389 160.352,113.992 162.49,116.059 164.806,118.446 167.051,120.976 169.082,123.471 170.685,125.787 
			171.255,126.82 171.647,127.747 172.823,131.274 173.572,135.372 173.5,133.733 173.322,132.165 173.037,130.669 172.681,129.243 
			171.683,126.571 170.436,124.112 169.011,121.903 167.478,119.907 165.91,118.126 164.378,116.487 161.706,114.17 
			158.819,111.783 157.857,110.856 157.18,109.93 156.753,109.075 156.574,108.255 156.61,107.471 156.788,106.723 157.145,106.01 
			157.608,105.369 158.891,104.229 160.387,103.302 161.955,102.625 163.416,102.197 166.302,101.77 169.224,101.734 
			170.65,101.877 172.004,102.197 173.287,102.661 174.463,103.302 175.496,104.122 176.387,105.119 177.099,106.331 
			177.598,107.792 177.883,109.502 177.883,111.462 177.634,113.671 177.064,116.166 177.883,113.956 178.596,111.605 
			178.81,110.357 178.917,109.075 178.81,107.756 178.489,106.367 178.062,105.191 177.527,104.086 176.921,103.053 
			176.244,102.126 175.496,101.271 174.676,100.487 172.859,99.169 170.828,98.171 168.654,97.458 166.409,97.066 164.129,96.995 
			161.884,97.209 159.71,97.743 157.679,98.563 155.862,99.703 154.258,101.128 153.581,101.948 152.975,102.874 152.477,103.837 
			152.049,104.906 151.728,106.046 151.514,107.257 151.443,108.433 151.514,109.538 151.728,110.607 152.049,111.605 
			152.477,112.567 152.975,113.458 154.187,115.097 155.541,116.522 156.966,117.734 159.532,119.551 162.133,121.475 
			164.77,123.863 167.193,126.535 168.262,127.925 169.189,129.315 169.723,130.312 170.186,131.381 170.792,133.555 171.077,135.8 
			171.042,138.081 170.721,140.325 170.151,142.535 169.331,144.637 168.298,146.597 167.122,148.379 165.768,149.947 
			164.307,151.229 162.739,152.191 161.1,152.797 159.425,153.047 157.75,152.833 156.895,152.548 156.076,152.12 154.864,151.194 
			153.759,149.911 152.762,148.379 151.835,146.633 150.16,142.855 148.628,139.114 148.735,140.147 		"/>
		<linearGradient id="SVGID_2_" gradientUnits="userSpaceOnUse" x1="173.6431" y1="130.9003" x2="232.9731" y2="130.9003">
			<stop  offset="0" style="stop-color:#AA8A4F"/>
			<stop  offset="1" style="stop-color:#C9A25D"/>
		</linearGradient>
		<polygon fill="url(#SVGID_2_)" points="177.028,136.762 177.028,137.617 177.099,137.831 177.313,136.691 177.812,134.873 
			179.237,130.206 181.304,124.005 176.707,124.789 176.031,127.177 175.068,130.882 174.356,134.268 173.893,137.332 
			173.679,140.04 173.643,142.428 173.786,144.423 174.106,146.062 174.57,147.345 175.14,148.236 175.817,148.735 176.565,148.842 
			177.385,148.521 178.24,147.808 179.131,146.633 179.986,145.029 180.841,142.998 181.269,145.35 181.589,146.419 181.981,147.31 
			182.48,148.022 183.05,148.521 183.727,148.771 184.476,148.735 185.153,148.45 185.759,147.987 186.756,146.74 187.398,145.564 
			187.611,145.065 187.897,146.098 188.217,146.989 188.609,147.737 189.072,148.343 189.607,148.771 190.177,148.984 
			190.818,148.984 191.495,148.771 192.173,148.379 192.778,147.844 193.847,146.597 194.56,145.492 194.809,145.029 
			194.952,146.062 195.201,146.989 195.522,147.773 195.914,148.414 196.342,148.949 196.841,149.305 197.375,149.519 
			197.945,149.59 198.551,149.483 199.157,149.234 199.763,148.806 200.368,148.236 200.974,147.488 201.544,146.561 
			202.079,145.421 202.578,144.103 203.183,146.383 203.754,147.737 204.217,148.379 204.395,148.521 204.894,149.091 
			205.428,149.448 205.963,149.626 206.497,149.661 207.602,149.305 208.635,148.592 209.562,147.737 210.31,146.918 
			210.987,146.027 211.094,146.882 211.272,147.523 211.7,148.343 212.092,148.699 212.27,148.771 212.805,149.198 213.339,149.412 
			213.838,149.483 214.301,149.412 215.156,148.949 215.905,148.129 216.475,147.203 216.902,146.312 217.259,145.385 
			217.615,148.307 218.007,149.733 218.292,150.232 218.399,150.267 218.862,147.452 219.361,144.887 219.931,142.606 
			220.501,140.61 221.749,137.297 222.996,134.838 224.136,133.127 225.062,132.058 225.953,131.346 225.276,134.018 
			224.813,136.263 224.314,139.72 224.243,141.929 224.421,144.245 224.884,146.419 225.205,147.417 225.597,148.272 
			226.06,148.984 226.559,149.412 227.022,149.59 227.45,149.59 228.091,149.341 228.341,149.163 228.911,148.806 229.445,148.272 
			230.407,146.846 231.191,145.136 231.833,143.319 232.688,140.076 232.973,138.651 232.189,138.579 231.868,140.076 
			231.405,141.501 230.336,143.924 229.374,145.564 228.946,146.169 228.412,146.633 227.949,146.846 227.557,146.882 
			227.236,146.775 226.987,146.49 226.808,146.134 226.595,145.136 226.523,143.996 226.559,142.927 226.666,141.822 
			227.165,138.651 227.664,136.192 228.127,134.339 228.555,133.021 228.946,132.13 229.232,131.631 229.517,131.31 
			229.053,132.379 228.697,133.555 228.198,135.907 227.949,137.76 227.877,138.508 228.056,137.582 228.59,135.907 
			230.158,131.381 232.439,125.181 232.296,125.324 231.975,125.431 231.12,125.537 229.909,125.537 228.626,125.609 
			227.664,125.965 227.094,126.393 226.452,127.034 225.062,128.816 222.746,132.344 223.316,130.811 224.172,128.174 
			225.276,124.54 222.176,125.288 221.392,125.431 220.893,125.644 220.501,126.25 220.002,127.64 219.468,129.564 219.005,131.845 
			218.185,136.655 217.437,142.25 215.441,145.777 214.907,146.241 214.479,146.49 214.087,146.526 213.766,146.383 
			213.517,146.134 213.339,145.777 213.089,144.78 212.983,143.639 212.983,142.57 213.018,141.466 213.339,139.114 
			213.766,136.976 214.23,135.087 214.729,133.484 215.584,131.239 215.94,130.419 215.334,132.379 214.871,134.161 
			214.301,137.047 214.052,138.936 214.016,139.613 214.764,136.62 216.118,131.987 218.007,125.858 217.615,126.214 
			217.08,126.535 215.798,126.963 214.194,127.248 213.588,127.497 213.268,127.925 213.089,128.531 212.056,131.952 
			211.343,134.98 210.916,137.546 210.702,139.684 210.631,141.359 210.666,142.57 210.773,143.568 209.027,145.67 208.279,146.383 
			207.602,146.846 207.032,147.096 206.497,147.203 206.034,147.131 205.642,146.953 205.036,146.276 204.609,145.35 
			204.359,144.352 204.217,143.497 204.145,141.893 204.324,140.005 204.68,137.938 205.179,135.871 205.82,133.876 
			206.568,132.165 207.388,130.811 207.816,130.348 208.243,130.027 206.64,132.914 205.571,135.479 204.929,137.689 
			204.609,139.542 204.502,141.003 204.537,142.071 204.68,142.927 204.787,141.359 205.001,139.862 205.606,137.225 
			206.426,135.016 207.352,133.199 208.243,131.809 209.027,130.811 209.775,130.027 209.989,130.063 210.167,130.206 
			210.31,130.811 210.31,131.666 210.203,132.664 209.847,134.553 209.633,135.408 209.74,135.836 209.882,135.943 210.061,135.836 
			210.239,135.515 210.738,134.303 211.165,132.736 211.878,129.457 212.199,127.854 212.163,126.215 211.878,125.074 
			211.415,124.397 210.88,124.041 210.31,123.934 209.811,123.97 209.312,124.112 207.994,125.252 206.854,126.535 205.891,127.889 
			205.072,129.315 204.395,130.776 203.86,132.237 203.433,133.698 203.112,135.087 202.72,137.653 202.578,139.755 202.613,141.68 
			199.941,145.92 199.264,146.383 198.693,146.597 198.23,146.561 197.838,146.348 197.553,145.92 197.339,145.385 197.09,143.996 
			197.019,142.464 197.054,141.038 197.197,139.577 197.91,135.444 198.587,132.094 199.228,129.457 199.798,127.462 
			200.653,125.074 200.974,124.397 199.691,129.279 198.8,133.092 198.266,135.907 197.981,137.902 197.874,139.221 197.91,140.005 
			198.016,140.468 198.337,138.259 198.943,135.408 200.618,128.887 202.934,120.87 204.537,121.368 206.497,121.653 
			208.671,121.796 210.845,121.796 214.515,121.618 216.047,121.511 217.758,121.333 219.183,121.012 220.394,120.549 
			221.357,119.943 222.141,119.266 222.746,118.553 223.209,117.805 223.53,117.092 223.851,116.059 223.958,115.168 
			223.815,114.313 223.459,113.386 222.96,112.531 222.426,111.961 221.891,111.64 221.392,111.533 220.573,111.64 220.252,111.747 
			220.929,111.89 221.499,112.139 222.39,112.852 222.924,113.636 223.138,114.491 223.031,115.418 222.604,116.415 222.14,117.057 
			221.57,117.556 220.359,118.197 219.361,118.518 218.933,118.589 217.152,118.66 214.942,118.553 210.025,117.912 
			205.891,117.164 204.145,116.807 205.571,111.854 205.25,112.175 204.787,112.424 203.611,112.709 202.079,112.816 
			201.58,112.816 201.152,113.173 200.796,113.743 200.475,114.42 200.048,115.774 199.905,116.38 198.587,116.095 197.624,120.406 
			198.765,120.834 197.909,123.756 197.197,126.678 196.627,129.528 196.128,132.272 195.451,137.047 195.13,140.397 
			195.023,141.751 194.097,143.39 193.135,144.851 192.172,145.991 191.282,146.597 190.89,146.668 190.533,146.561 
			190.248,146.241 189.999,145.671 189.821,144.851 189.714,143.782 189.785,140.753 190.141,137.51 190.747,134.196 
			191.495,130.989 192.315,128.032 193.776,123.435 194.417,121.618 193.384,124.967 192.564,127.996 191.959,130.704 
			191.531,133.056 191.068,136.37 190.961,137.546 191.246,135.764 192.03,132.593 194.489,124.041 198.052,112.317 
			195.237,112.674 194.417,112.781 193.847,113.066 193.42,113.672 193.028,114.669 191.923,118.518 190.569,123.613 
			189.536,128.21 188.787,132.237 188.253,135.657 187.718,140.468 187.611,142.178 186.756,144.103 186.115,145.136 
			185.545,145.813 185.046,146.169 184.654,146.276 184.333,146.134 184.084,145.813 183.763,144.708 183.585,143.319 
			183.513,141.929 183.549,140.432 183.834,138.223 184.19,136.299 185.01,133.377 185.687,131.631 185.972,131.061 
			185.402,133.092 185.046,134.909 184.832,136.727 188.146,126.25 187.683,126.571 187.077,126.82 185.651,127.141 183.87,127.355 
			183.513,127.676 183.193,128.21 182.587,129.849 182.052,131.987 181.625,134.339 181.019,138.615 180.805,140.539 
			179.843,142.606 178.988,144.352 178.489,145.1 177.919,145.742 177.349,146.098 176.886,146.098 176.529,145.813 176.28,145.243 
			176.102,144.459 175.995,143.461 176.066,141.074 176.351,138.366 176.85,135.657 177.491,133.199 178.24,131.31 177.349,134.802 
					"/>
		<linearGradient id="SVGID_3_" gradientUnits="userSpaceOnUse" x1="120.2637" y1="174.1062" x2="273.524" y2="174.1062">
			<stop  offset="0" style="stop-color:#AA8A4F"/>
			<stop  offset="1" style="stop-color:#C9A25D"/>
		</linearGradient>
		<polygon fill="url(#SVGID_3_)" points="273.453,133.484 273.275,132.415 272.99,131.381 272.598,130.419 272.099,129.564 
			271.493,128.78 270.816,128.103 270.032,127.533 269.177,127.07 268.215,126.749 267.181,126.607 266.041,126.607 
			264.829,126.749 265.506,127.212 266.575,127.676 267.858,128.246 269.177,129.03 270.388,130.134 270.923,130.847 
			271.35,131.667 271.707,132.629 271.921,133.733 271.992,134.98 271.921,136.406 271.707,137.439 271.315,138.366 270.78,139.15 
			270.103,139.827 268.642,140.896 267.253,141.573 264.723,142.464 262.264,143.034 259.876,143.319 257.489,143.39 
			255.137,143.247 252.75,142.927 247.797,142.036 251.146,129.814 250.683,130.384 250.113,130.811 249.436,131.132 
			248.652,131.381 246.906,131.702 245.16,131.952 243.307,132.272 241.596,132.842 240.848,133.306 240.171,133.876 
			239.637,134.588 239.209,135.515 237.498,140.717 235.824,146.633 234.22,153.011 232.688,159.603 231.263,166.231 
			229.98,172.645 228.875,178.632 227.984,183.977 226.737,192.458 226.274,196.805 225.953,201.081 225.846,203.005 
			225.704,204.003 225.383,204.716 224.777,205.785 223.708,207.495 222.639,208.992 221.57,210.274 220.501,211.343 
			219.432,212.234 218.363,212.947 217.294,213.446 216.261,213.766 215.263,213.909 214.265,213.873 213.303,213.624 
			212.377,213.232 211.521,212.662 210.702,211.949 209.954,211.058 209.241,210.025 208.421,208.457 207.709,206.675 
			207.139,204.68 206.675,202.506 206.39,200.19 206.248,197.731 206.248,195.166 206.426,192.493 206.747,189.749 207.281,186.934 
			207.994,184.084 208.92,181.233 210.061,178.382 211.415,175.567 212.983,172.788 214.8,170.044 214.052,172.146 213.303,173.75 
			211.842,176.422 210.132,180.271 209.419,182.266 208.778,184.476 208.243,187.006 207.851,189.999 207.531,193.562 
			207.352,197.838 208.778,190.284 209.597,186.649 210.524,183.264 211.593,180.164 212.84,177.456 213.553,176.244 
			214.337,175.175 215.192,174.249 216.118,173.429 217.009,172.895 217.829,172.574 218.577,172.467 219.218,172.574 
			219.753,172.895 220.145,173.393 220.43,174.07 220.573,174.89 220.573,175.888 220.466,177.028 220.181,178.311 219.717,179.736 
			219.076,181.268 218.256,182.908 217.259,184.618 216.047,186.435 215.227,187.362 213.802,188.93 212.341,190.426 
			209.954,192.351 209.241,193.099 208.813,193.705 208.671,194.168 208.742,194.524 209.027,194.774 209.49,194.952 
			210.844,195.059 212.626,194.881 216.546,194.097 218.007,193.526 219.361,192.814 220.608,191.959 221.784,190.961 
			222.853,189.856 223.815,188.645 224.67,187.326 225.419,185.937 226.096,184.476 226.666,182.943 227.129,181.375 
			227.521,179.772 227.806,178.133 228.02,176.494 228.127,174.854 228.162,173.215 228.091,171.612 227.949,170.044 
			227.735,168.512 227.414,167.051 227.022,165.661 226.559,164.378 226.024,163.167 225.419,162.062 224.742,161.1 
			223.993,160.245 223.138,159.532 222.247,158.962 221.25,158.57 220.216,158.356 219.111,158.356 217.936,158.534 
			216.332,159.104 214.8,159.995 213.374,161.171 212.02,162.632 210.773,164.343 209.597,166.267 208.493,168.369 207.495,170.65 
			206.604,173.037 205.784,175.531 205.036,178.097 204.395,180.734 203.86,183.371 203.397,186.008 202.756,191.139 
			202.542,194.417 202.471,197.767 202.471,199.834 202.399,201.01 202.114,201.936 201.544,203.397 200.582,205.642 
			199.62,207.637 198.586,209.455 197.411,211.13 196.52,211.985 195.736,212.555 195.023,212.876 194.382,212.947 193.812,212.769 
			193.313,212.377 192.885,211.771 192.564,210.987 192.279,210.025 192.066,208.92 191.816,206.283 191.781,203.183 
			191.959,199.762 192.315,196.092 192.849,192.315 193.491,188.573 194.239,184.939 195.094,181.554 196.021,178.525 
			197.019,175.995 198.052,174.035 197.803,175.531 197.304,177.634 195.95,182.943 194.56,188.502 194.025,190.925 
			193.705,192.885 196.056,185.758 199.37,176.208 205.428,159.318 204.537,159.853 203.611,160.245 201.722,160.779 
			199.762,161.029 197.767,161.171 196.377,161.349 195.094,161.706 193.883,162.24 192.743,162.953 191.674,163.772 
			190.64,164.734 188.752,166.979 186.97,169.616 185.259,172.503 181.874,178.703 182.231,177.242 182.908,175.033 
			184.867,169.296 188.466,159.176 186.435,159.924 184.761,160.316 181.126,160.957 179.273,161.492 177.669,162.204 
			176.244,163.095 174.961,164.164 173.75,165.447 172.574,166.979 170.044,170.685 167.906,174.177 165.839,177.776 167.3,172.966 
			168.904,168.227 171.897,158.926 170.935,159.389 169.973,159.781 168.476,160.209 165.554,160.672 163.345,160.85 161.706,161.1 
			161.064,161.385 160.494,161.848 159.995,162.596 159.496,163.559 159.033,164.841 158.534,166.481 157.501,171.077 
			156.182,177.776 155.612,180.698 155.113,183.62 154.615,186.542 153.581,194.702 153.011,199.05 152.726,200.653 
			152.477,201.687 151.764,203.504 150.695,205.891 149.376,208.457 147.915,210.773 147.167,211.7 146.419,212.412 
			145.706,212.876 145.029,212.983 144.388,212.769 143.818,212.092 143.319,210.951 142.891,209.277 142.535,206.925 
			142.321,204.537 142.25,202.079 142.321,199.62 142.499,197.161 142.784,194.702 143.176,192.244 143.639,189.785 144.78,184.974 
			146.134,180.342 147.595,175.995 149.056,171.968 147.702,176.957 146.027,183.193 145.243,186.364 144.602,189.429 
			144.174,192.208 144.067,194.524 145.172,189.892 146.419,185.295 147.809,180.805 149.269,176.422 155.113,159.247 
			153.332,159.924 151.764,160.423 149.163,160.957 147.131,161.242 145.385,161.563 144.566,161.848 143.746,162.276 
			142.891,162.882 141.965,163.701 140.967,164.77 139.862,166.16 137.225,170.008 136.228,171.576 134.802,173.999 
			133.377,176.672 133.698,174.997 134.553,171.719 137.118,162.454 141.323,147.915 146.597,130.633 144.602,131.56 
			143.604,131.809 142.25,131.916 140.112,131.952 138.971,132.058 137.867,132.308 136.833,132.735 135.907,133.377 
			135.194,134.303 134.695,135.551 131.952,145.884 129.35,156.396 127.105,166.481 125.823,172.788 124.468,179.309 
			123.613,183.87 122.509,190.569 121.44,197.803 120.691,204.003 120.442,206.889 120.299,209.633 120.264,212.199 120.371,214.55 
			120.62,216.653 121.048,218.506 121.618,220.038 122.402,221.25 122.722,219.967 123.114,217.829 123.685,214.087 
			125.003,207.744 126.464,202.114 128.068,197.019 129.885,192.315 131.916,187.861 134.161,183.549 136.655,179.202 
			139.435,174.676 139.292,176.779 139.043,178.952 138.33,183.442 137.475,188.039 136.655,192.743 136.085,197.482 
			135.943,199.869 135.907,202.257 136.014,204.609 136.299,206.96 136.762,209.312 137.439,211.628 138.401,214.087 
			139.363,216.011 140.361,217.472 141.323,218.47 142.321,219.04 143.319,219.254 144.316,219.112 145.279,218.684 
			146.241,218.007 147.203,217.08 148.129,215.976 149.056,214.729 150.802,211.949 152.512,209.027 152.69,210.773 153.011,214.23 
			153.296,216.225 153.724,218.221 154.329,220.074 155.113,221.606 155.684,217.223 156.361,213.125 157.145,209.312 
			158.035,205.713 159.033,202.364 160.102,199.192 161.242,196.235 162.418,193.455 163.666,190.818 164.948,188.324 
			167.585,183.656 172.895,175.104 172.752,176.422 172.503,177.776 171.932,180.556 171.184,184.654 170.472,189.001 
			169.901,193.384 169.438,197.767 169.117,201.865 168.904,205.464 168.832,208.635 168.939,211.486 169.224,214.123 
			169.723,216.582 170.472,218.969 171.469,221.392 172.182,217.009 173.287,210.453 174.071,206.604 175.104,202.542 
			176.351,198.373 177.919,194.204 179.95,189.749 183.157,183.407 184.903,180.342 186.542,177.776 188.003,175.995 
			188.609,175.496 189.108,175.318 188.93,176.707 188.431,179.166 187.504,183.62 186.934,187.112 186.4,190.783 185.972,194.524 
			185.723,198.337 185.651,202.079 185.865,205.713 186.079,207.459 186.364,209.17 186.756,210.809 187.255,212.377 
			188.395,214.835 189.536,216.724 190.64,218.078 191.745,218.933 192.814,219.361 193.883,219.361 194.916,219.005 
			195.914,218.328 196.912,217.401 197.874,216.225 198.8,214.835 199.691,213.303 201.366,209.989 202.863,206.604 
			203.183,207.317 203.504,208.457 204.43,211.557 205.107,213.303 205.998,215.049 207.139,216.653 207.816,217.365 
			208.564,218.043 209.776,218.862 210.987,219.468 212.163,219.824 213.339,220.002 214.479,220.002 215.619,219.789 
			216.724,219.432 217.793,218.898 218.862,218.221 219.895,217.401 221.891,215.441 223.815,213.125 225.633,210.524 
			225.918,211.308 226.167,212.377 226.488,213.66 226.88,215.049 227.45,216.51 228.305,217.9 229.481,219.183 230.229,219.753 
			231.084,220.252 232.296,220.608 233.686,220.644 235.075,220.43 236.251,220.074 237.392,219.254 238.496,218.221 
			239.53,216.974 240.492,215.548 241.418,213.945 242.273,212.199 243.841,208.386 245.195,204.324 246.371,200.226 
			248.296,192.671 247.654,192.6 247.155,192.707 246.799,192.956 246.514,193.348 246.122,194.453 245.801,195.914 
			245.124,198.408 244.233,200.903 243.2,203.361 242.024,205.713 240.741,207.851 239.423,209.74 238.069,211.343 236.75,212.555 
			235.467,213.339 234.862,213.553 234.292,213.624 233.757,213.553 233.258,213.339 232.795,212.947 232.367,212.377 
			232.011,211.664 231.69,210.738 231.405,209.633 231.227,208.35 231.084,206.854 231.013,205.143 231.263,201.081 
			231.476,198.408 231.797,195.558 232.795,189.357 234.113,182.801 235.646,176.102 237.285,169.438 238.959,163.095 
			241.302,154.937 241.49,154.187 242.06,152.298 241.302,154.937 240.314,158.891 238.746,165.554 237,173.394 235.289,181.589 
			233.828,189.322 232.831,195.771 232.581,198.266 232.51,200.154 234.969,189.322 237.463,178.845 240.171,168.44 
			241.668,163.167 243.307,157.786 244.554,153.581 244.91,152.583 245.302,152.085 245.872,151.978 246.763,152.085 
			248.117,152.298 250.113,152.405 252.678,152.227 255.066,151.906 257.311,151.443 259.378,150.873 261.302,150.196 
			263.083,149.412 264.723,148.521 266.184,147.595 267.538,146.561 268.714,145.492 269.747,144.352 270.673,143.176 
			271.457,141.965 272.099,140.753 272.633,139.506 273.025,138.259 273.31,137.012 273.488,135.8 273.524,134.624 		"/>
		<linearGradient id="SVGID_4_" gradientUnits="userSpaceOnUse" x1="29.6472" y1="170.5963" x2="141.5726" y2="170.5963">
			<stop  offset="0" style="stop-color:#AA8A4F"/>
			<stop  offset="1" style="stop-color:#C9A25D"/>
		</linearGradient>
		<path fill="url(#SVGID_4_)" d="M122.33,174.605l0.962-4.882l2.067-9.372l1.96-9.336l0.713-3.35l0.855-3.456l0.891-3.456
			l0.784-3.314l2.067-9.051l2.281-8.98l2.352-8.944l2.245-8.837l1.105-4.49l0.962-4.846l-1.247,0.926l-0.392,0.285l-0.321,0.392
			l-0.321,0.677l-0.356,1.176l-1.069,4.419l-2.209,9.621l-1.39,5.666l-0.534,2.031l-0.356,0.962l0.178-1.568l0.499-2.708
			l1.604-7.341l2.958-12.757l-0.713,0.249l-0.534,0.463l-0.428,0.677l-0.463,0.891v-1.746l-1.889,0.392l-1.853,0.641l-1.639,0.677
			l-0.606,0.499l-0.677,0.855l-1.033,1.782l-0.855,2.102l-1.568,4.668l-1.639,4.419l-1.71,4.276l-2.102,4.917l-2.245,4.668
			l-4.561,9.265l-0.641,1.212l-0.641,1.105l-1.39,2.316l-2.53,4.454l-2.673,4.419l-2.672,4.347l-2.494,4.312l-1.604-0.713
			l-2.245-1.318l-2.316-1.425l-1.782-1.033l-2.102-0.927l-2.245-0.998l-2.53-0.998l-2.708-0.891l-2.851-0.82l-2.993-0.677
			l-3.065-0.534l-3.136-0.392l-3.171-0.214l-3.207-0.036l-3.171,0.178l-3.136,0.392l-3.065,0.641l-2.993,0.891l-2.851,1.176
			l-2.708,1.461l-2.566,1.782l-2.352,2.102l-2.459,2.281l-1.283,1.39l-1.247,1.532l-1.176,1.675l-1.033,1.853l-0.855,1.96
			l-0.57,2.102l1.853-2.958l1.675-2.459l1.604-1.995l1.639-1.639l1.817-1.354l2.102-1.14l2.459-1.033l2.958-1.033l1.71-0.428
			l1.604-0.356l1.568-0.534l1.568-0.962l0.499,0.392l0.82,0.249l2.174,0.143l3.92-0.178l1.924,0.071l1.853-0.107h0.57l0.321,0.143
			l0.249,0.143l0.392,0.071l0.677-0.214l1.105-0.249l-1.069,0.535l0.748,0.285l0.962,0.178l1.817,0.249l2.637,0.534l2.637,0.748
			l2.601,0.962l2.53,1.14l3.029,1.639l2.922,1.889l2.886,2.067l2.886,2.281l-1.212,1.889l-1.532,1.924l-3.136,3.563l-4.454,4.953
			l-2.316,2.566l-1.604,1.889l-2.209,2.352l-3.421,3.278l-3.385,3.1l-2.102,1.782l-2.494,1.889l-2.138,1.71l-2.245,1.675
			l-2.886,1.817l-3.92,2.352l-1.96,1.105l-1.924,0.891l-1.461,0.534l-1.39,0.606l-0.107,0.071l-1.354,0.606l-1.71,0.463
			l-1.924,0.321l-2.031,0.214l-3.955,0.071l-1.675-0.107l-1.318-0.249l-0.677-0.249l-0.534-0.428l-0.428-0.535l-0.321-0.677
			l-0.214-0.748l-0.107-0.82v-1.817l0.249-1.889l0.392-1.817l0.463-1.604l0.463-1.247l1.604-3.171l1.782-2.851l1.853-2.672
			l1.924-2.637l-0.677,0.428l-0.891,0.891l-2.174,2.566l-2.031,2.708l-1.247,1.746l-1.069,1.746l-1.176,2.281l-1.14,2.637
			l-0.962,2.851l-0.356,1.461l-0.285,1.461l-0.178,1.425l-0.036,1.39l0.107,1.318l0.249,1.247l0.428,1.14l0.641,1.033l0.677,0.748
			l0.784,0.641l0.891,0.499l0.962,0.428l2.102,0.534l2.245,0.214l2.245-0.036l2.174-0.214l3.67-0.606l2.245-0.499l2.174-0.677
			l4.276-1.675l4.205-1.995l4.169-2.174l3.385-2.031l3.278-2.423l4.169-3.278l2.031-1.675l2.067-1.782l4.027-3.599l0.855-0.891
			l2.958-2.708l2.779-2.815l2.815-3.029l1.354-1.532l1.354-1.639l2.744-3.385l2.494-3.171l0.748-0.927l0.606-0.463l0.285-0.036
			l0.321,0.071l0.748,0.534l2.53,2.637l1.853,2.067l1.782,2.281l1.604,2.494l1.318,2.708l0.214,0.713l0.107,0.891l0.036,2.387
			l-0.178,3.065l-0.356,3.67l-1.033,8.766l-0.534,4.917l-0.499,5.238l-0.356,5.203l-0.178,5.238l0.036,5.167l0.321,4.989
			l0.285,2.387l0.392,2.316l0.499,2.209l0.606,2.102l0.713,1.995l0.82,1.889l0.962,1.71l1.105,1.568l-0.178-3.742l-0.107-3.884
			v-4.027l0.107-4.133l0.428-8.481l0.713-8.623l0.926-8.552l1.105-8.338l1.212-7.911l1.283-7.269L122.33,174.605z M104.086,154.08
			l-6.664,9.336l-3.777,5.06l-2.031,2.566l-1.96,2.245l-2.851,3.171l-2.316,2.494l-2.316,2.387l-0.962,1.069l-0.962,1.033
			l-0.998,0.962l-9.193,7.626l-4.561,3.528l-4.917,3.421l0.356-0.499l0.57-0.57l1.568-1.212l7.59-5.416l3.742-2.993l1.817-1.675
			l1.746-1.817l1.39-1.212l1.283-1.318l1.318-1.318l1.639-1.639l2.209-2.423l3.742-4.383l1.176-1.568l3.635-4.454l3.029-3.848
			l2.851-3.991l5.594-8.623l5.523-8.73l0.962-1.675l1.96-3.599l1.853-3.706l1.817-3.635l1.853-3.421l0.713-0.57l-5.024,9.728
			l-2.779,5.416l-2.316,4.276l-3.1,5.131L104.086,154.08z M118.019,154.009l-1.924,9.265l-0.784,3.171l-0.321,0.998l-0.214,0.499
			l-1.568-1.318l-1.96-1.817l-1.853-2.067l-0.713-1.033l-0.499-0.962l0.855-1.283l0.82-1.39l1.425-2.281l1.069-1.746l1.176-1.96
			l1.212-1.996l6.165-11.011L118.019,154.009z"/>
	</g>
	
		<radialGradient id="SVGID_5_" cx="594.0435" cy="-677.3175" r="250.0472" gradientTransform="matrix(0.3563 0 0 -0.3563 -147.1782 -119.4844)" gradientUnits="userSpaceOnUse">
		<stop  offset="0" style="stop-color:#FCDFB4"/>
		<stop  offset="0.4896" style="stop-color:#C9A25D"/>
		<stop  offset="0.5707" style="stop-color:#BC9857"/>
		<stop  offset="0.7196" style="stop-color:#9B7E48"/>
		<stop  offset="0.9184" style="stop-color:#65532F"/>
		<stop  offset="1" style="stop-color:#4D4024"/>
	</radialGradient>
	<polygon fill="url(#SVGID_5_)" points="34.137,95.748 32.427,86.091 30.752,93.396 30.182,95.641 29.968,96.068 29.754,96.247 
		28.899,96.639 28.151,97.137 27.082,98.1 26.084,99.24 25.122,100.558 24.267,102.019 23.518,103.623 22.877,105.369 
		22.342,107.222 21.95,109.11 21.701,111.07 12.507,111.035 12.864,113.671 13.434,116.665 14.218,119.8 15.18,123.007 
		16.213,126.179 17.318,129.136 18.423,131.773 19.492,133.947 21.523,137.439 23.625,140.717 25.87,143.782 28.258,146.561 
		29.255,147.559 30.396,148.664 31.536,149.519 32.676,150.445 33.745,151.657 33.603,151.799 33.46,152.227 33.139,153.688 
		32.605,158.32 31.928,166.16 32.854,164.129 34.885,160.138 37.13,156.004 38.556,153.581 40.017,151.871 41.763,150.41 
		43.01,149.483 45.54,147.559 48.07,145.92 50.671,144.495 53.451,143.212 55.232,142.57 57.121,142.036 59.116,141.608 
		61.219,141.359 65.637,141.145 70.234,141.359 74.831,141.965 79.321,142.962 83.525,144.281 87.303,145.884 90.616,147.488 
		94.002,149.198 97.422,151.265 100.843,153.546 106.473,143.39 111.355,134.874 114.384,129.457 116.38,125.68 116.985,124.397 
		118.482,121.44 119.836,118.268 122.437,111.783 116.13,111.747 116.273,110.072 116.665,108.433 117.556,105.262 116.13,103.516 
		116.166,101.271 116.308,100.238 116.629,99.489 117.199,98.171 116.38,95.676 116.166,94.786 116.023,94.002 116.023,93.218 
		116.13,92.256 116.665,89.547 116.95,88.407 117.235,87.303 117.27,86.554 117.164,86.162 116.629,85.592 116.344,84.773 
		116.201,83.525 116.095,80.176 116.237,73.762 116.13,68.025 115.809,62.395 114.776,51.099 114.634,51.954 113.6,70.27 
		113.529,75.08 113.529,79.285 113.529,82.029 113.351,83.917 112.994,85.699 112.353,88.051 112.816,88.835 113.137,89.191 
		113.351,89.868 113.386,91.543 113.315,93.538 113.101,94.251 112.781,94.643 112.424,95.534 112.246,96.14 112.246,96.745 
		112.353,97.85 112.959,99.774 113.279,104.05 112.246,103.979 112.175,111.747 109.217,111.783 109.217,110.571 109.289,109.574 
		109.68,108.113 110.037,107.115 110.144,106.687 110.108,106.224 109.966,105.725 109.752,105.44 109.538,105.262 109.395,105.012 
		109.324,104.585 109.395,103.872 110.144,100.879 109.217,99.561 109.787,95.712 109.894,94.501 109.645,94.073 109.502,93.645 
		109.36,92.719 109.289,90.759 109.324,88.478 109.36,86.127 109.289,83.953 108.326,73.298 108.255,74.082 107.792,81.886 
		107.649,85.842 107.578,89.797 107.542,91.436 107.471,92.648 107.293,93.859 106.937,95.32 107.329,96.247 107.507,96.959 
		107.542,97.565 107.436,98.67 107.186,99.454 107.044,99.81 107.4,104.941 106.901,105.476 106.794,105.654 106.723,105.975 
		106.723,111.854 103.801,111.712 102.91,108.683 102.126,105.511 96.959,105.903 95.57,100.986 94.821,98.563 93.966,96.211 
		93.146,94.358 92.113,92.398 90.973,90.403 89.726,88.443 88.407,86.625 87.053,85.022 85.735,83.704 84.487,82.777 77.539,79.641 
		75.65,65.388 72.764,79.427 70.02,80.354 67.561,81.494 65.352,82.813 63.285,84.452 61.397,86.483 59.544,88.942 57.762,91.899 
		55.981,95.498 54.662,98.883 54.092,100.736 53.593,102.625 53.308,103.908 52.88,105.262 47.749,104.941 47.215,106.652 
		46.823,108.647 45.967,111.284 43.794,111.248 42.939,106.794 42.297,104.585 41.798,103.409 41.193,102.162 40.444,100.843 
		39.66,99.703 38.841,98.705 37.986,97.886 37.095,97.173 36.168,96.567 35.17,96.104 	"/>
</g>
</svg>
